<svg width="30" height="30" viewBox="0 0 30 30" fill="none" xmlns="http://www.w3.org/2000/svg">
<path d="M15 0C12.0333 0 9.13319 0.879735 6.66645 2.52796C4.19972 4.17618 2.27713 6.51886 1.14181 9.25975C0.00649923 12.0006 -0.290551 15.0166 0.288228 17.9264C0.867006 20.8361 2.29562 23.5088 4.3934 25.6066C6.49119 27.7044 9.16394 29.133 12.0736 29.7118C14.9834 30.2906 17.9994 29.9935 20.7403 28.8582C23.4811 27.7229 25.8238 25.8003 27.472 23.3335C29.1203 20.8668 30 17.9667 30 15C29.9961 11.0229 28.4145 7.20988 25.6023 4.39768C22.7901 1.58547 18.9771 0.00387439 15 0V0ZM11.9049 21.0658C12.8111 21.1675 13.7223 21.2188 14.6342 21.2195C15.7993 21.2194 16.9631 21.1387 18.1171 20.978C17.4464 23.3293 16.3933 25.5542 15 27.5634C13.6225 25.5799 12.5772 23.3853 11.9049 21.0658V21.0658ZM14.6342 19.0244C13.5392 19.0235 12.4459 18.9404 11.3634 18.7756C11.1076 17.4099 10.9778 16.0236 10.9756 14.6341C10.975 13.4973 11.0631 12.3622 11.239 11.239C12.3623 11.0638 13.4973 10.9757 14.6342 10.9756C16.0236 10.9778 17.4099 11.1076 18.7756 11.3634C18.9404 12.4459 19.0236 13.5392 19.0244 14.6341C19.0224 15.9838 18.9 17.3306 18.6585 18.6585C17.3306 18.9 15.9838 19.0224 14.6342 19.0244V19.0244ZM9.04391 18.2927C6.61129 17.6624 4.33302 16.542 2.34879 15C4.29809 13.4708 6.53891 12.3553 8.93415 11.7219C8.82528 12.6888 8.77397 13.6612 8.78049 14.6341C8.77975 15.8584 8.86778 17.0811 9.04391 18.2927V18.2927ZM15 2.34878C16.5414 4.33334 17.6618 6.6115 18.2927 9.0439C17.0811 8.86778 15.8584 8.77974 14.6342 8.78049C13.6559 8.78071 12.6786 8.83935 11.7073 8.9561C12.349 6.5545 13.469 4.30717 15 2.34878V2.34878ZM21.0659 11.9049C23.3879 12.5764 25.5849 13.6218 27.5707 15C25.5614 16.3932 23.3366 17.4463 20.9854 18.1171C21.1436 16.9629 21.2218 15.7991 21.2195 14.6341C21.2188 13.7222 21.1675 12.8111 21.0659 11.9049V11.9049ZM27.5195 12.3366C25.3939 11.0568 23.0875 10.1046 20.6781 9.51219C20.1522 7.02997 19.1883 4.66127 17.8317 2.51707C20.2138 3.06177 22.3908 4.27518 24.107 6.01465C25.8231 7.75413 27.007 9.94738 27.5195 12.3366ZM12.1537 2.52439C10.8234 4.62342 9.87004 6.93871 9.33659 9.36585C6.90945 9.8993 4.59416 10.8527 2.49513 12.1829C3.03298 9.82286 4.22729 7.66301 5.94019 5.9527C7.65309 4.24239 9.81474 3.05135 12.1756 2.51707L12.1537 2.52439ZM2.51708 17.8244C4.66077 19.1836 7.0295 20.1499 9.5122 20.678C10.1039 23.09 11.0561 25.3989 12.3366 27.5268C9.9455 27.0132 7.75093 25.8272 6.01128 24.1082C4.27162 22.3893 3.05931 20.2091 2.51708 17.8244V17.8244ZM17.6634 27.5195C18.9705 25.3485 19.9355 22.9891 20.5244 20.5244C22.9892 19.9355 25.3485 18.9705 27.5195 17.6634C26.9999 20.0808 25.7935 22.2967 24.0451 24.0451C22.2967 25.7935 20.0808 26.9999 17.6634 27.5195V27.5195Z" fill="white"/>
</svg>
